<?xml version="1.0" standalone="no"?>
<!DOCTYPE svg PUBLIC "-//W3C//DTD SVG 20010904//EN"
 "http://www.w3.org/TR/2001/REC-SVG-20010904/DTD/svg10.dtd">
<svg version="1.0" xmlns="http://www.w3.org/2000/svg"
 width="1280.000000pt" height="1224.000000pt" viewBox="0 0 1280.000000 1224.000000"
 preserveAspectRatio="xMidYMid meet">
<g transform="translate(0.000000,1224.000000) scale(0.100000,-0.100000)"
fill="#FFFFFF" stroke="none">
<path d="M6670 12024 c-19 -2 -91 -9 -160 -14 -390 -34 -1095 -191 -1219 -273
-51 -34 -81 -97 -81 -168 0 -108 68 -177 202 -206 75 -16 80 -16 172 5 128 30
241 37 371 23 367 -40 778 -198 1142 -441 441 -293 709 -626 763 -949 19 -117
-3 -266 -51 -344 -11 -18 -31 -68 -45 -112 -47 -146 -44 -348 9 -506 l23 -68
-1175 -1175 -1176 -1175 -75 21 c-99 28 -285 30 -380 5 -128 -35 -202 -81
-339 -211 -608 -581 -4116 -3949 -4186 -4020 -253 -255 -315 -503 -197 -784
59 -142 113 -204 602 -695 256 -258 490 -488 520 -511 269 -208 604 -270 869
-162 150 61 67 -23 2255 2283 1308 1378 2073 2191 2094 2226 18 31 45 88 60
129 24 67 26 86 26 228 0 133 -3 163 -22 215 l-21 60 1172 1172 1172 1172 50
-31 c68 -43 200 -96 288 -115 109 -24 298 -21 417 7 52 12 127 23 167 23 64 0
81 -4 149 -37 89 -45 222 -169 348 -328 l78 -98 -45 -60 c-240 -319 -154 -792
188 -1035 212 -150 460 -191 681 -111 132 48 160 72 627 536 247 245 471 473
498 506 174 218 196 508 58 774 -155 300 -493 470 -809 406 l-85 -18 -28 34
c-85 99 -178 259 -257 443 -152 350 -294 576 -555 880 -145 169 -1601 1650
-1723 1752 -532 446 -1117 683 -1837 743 -110 9 -452 11 -535 4z"/>
</g>
</svg>